<?xml version="1.0" standalone="no"?>
<!DOCTYPE svg PUBLIC "-//W3C//DTD SVG 20010904//EN"
 "http://www.w3.org/TR/2001/REC-SVG-20010904/DTD/svg10.dtd">
<svg version="1.0" xmlns="http://www.w3.org/2000/svg"
 width="357.000000pt" height="357.000000pt" viewBox="0 0 357.000000 357.000000"
 preserveAspectRatio="xMidYMid meet">
<metadata>
Created by potrace 1.11, written by Peter Selinger 2001-2013
</metadata>
<g transform="translate(0.000000,357.000000) scale(0.100000,-0.100000)"
fill="#000000" stroke="none">
<path d="M0 3415 c0 -85 2 -155 3 -155 2 0 17 33 33 73 15 39 31 74 34 77 3 3
11 19 19 35 7 17 24 51 36 78 l24 47 -75 0 -74 0 0 -155z"/>
<path d="M181 3563 c0 -5 4 -16 8 -26 6 -16 9 -16 31 8 l23 25 -31 0 c-18 0
-32 -3 -31 -7z"/>
<path d="M491 3566 c13 -12 287 -100 368 -118 127 -29 361 -32 467 -6 83 20
247 77 254 88 3 4 19 14 35 23 28 15 -12 16 -549 17 -319 0 -577 -2 -575 -4z"/>
<path d="M1650 3532 c-129 -75 -367 -190 -445 -215 -163 -52 -156 -51 -480
-52 -341 -1 -331 1 -460 -71 -62 -35 -189 -164 -233 -237 l-33 -54 3 -132 3
-131 39 72 c47 88 94 158 106 158 9 0 8 -2 -15 -95 -17 -67 -20 -162 -6 -198
11 -29 70 -87 88 -87 7 0 26 -8 43 -18 l30 -19 -83 -32 -84 -33 -61 26 -62 25
0 -114 c0 -87 3 -114 14 -118 8 -3 74 -13 147 -22 205 -25 317 -57 462 -132
105 -53 235 -147 352 -254 106 -96 391 -374 436 -425 46 -52 116 -101 183
-127 42 -16 83 -21 228 -26 150 -5 180 -9 195 -23 16 -17 16 -18 -2 -18 -17 0
-17 -2 -5 -10 8 -5 12 -10 8 -11 -12 -2 -19 -4 -68 -19 -48 -14 -206 -19 -255
-8 -98 21 -249 83 -283 115 -7 7 -18 13 -23 13 -28 0 -240 222 -257 269 -5 15
-113 122 -179 176 -93 76 -91 75 -101 75 -5 0 -15 6 -21 14 -15 18 -164 91
-226 110 -206 64 -374 59 -536 -15 l-70 -32 2 -109 c1 -59 4 -108 6 -108 3 0
25 18 48 39 76 70 242 101 373 71 63 -15 192 -71 186 -81 -3 -5 2 -9 11 -9 17
0 95 -49 95 -60 0 -20 -17 -16 -54 13 -85 66 -190 106 -301 114 -132 9 -231
-21 -318 -97 l-47 -42 0 -231 c0 -263 -5 -245 90 -313 65 -46 87 -60 204 -120
72 -37 86 -48 73 -55 -19 -11 -141 46 -132 61 4 6 -1 7 -11 3 -12 -4 -15 -3
-10 5 4 7 2 10 -6 7 -8 -3 -25 5 -38 17 -14 13 -26 21 -28 19 -5 -5 -27 10
-93 62 -28 21 -49 32 -49 24 0 -7 5 -18 11 -24 8 -8 8 -13 0 -17 -7 -5 -11
-61 -11 -160 l0 -152 37 -15 c20 -8 57 -24 82 -37 24 -12 50 -22 56 -22 7 0
18 -7 25 -15 7 -8 20 -15 29 -15 9 0 22 -9 29 -20 7 -11 17 -20 24 -20 32 0
248 -198 248 -228 0 -5 7 -12 15 -16 8 -3 15 -10 15 -16 0 -6 11 -26 25 -44
14 -18 28 -47 31 -65 4 -17 11 -34 15 -37 5 -3 9 -12 9 -20 0 -7 -39 23 -86
69 -47 45 -90 84 -96 86 -6 2 -19 11 -30 20 -10 9 -22 16 -26 16 -4 0 -20 9
-35 19 -61 41 -174 28 -259 -31 l-37 -25 -27 21 c-38 30 -44 27 -44 -24 0 -31
6 -52 19 -66 16 -18 53 -134 50 -156 -6 -36 3 -73 17 -73 13 0 15 8 9 50 -14
101 16 139 66 82 27 -29 59 -94 59 -117 0 -13 32 -15 210 -15 l209 0 -2 30
c-1 16 -6 30 -11 30 -5 0 -7 3 -3 6 3 3 -3 21 -14 40 -10 19 -15 34 -11 34 7
0 27 -32 64 -102 l20 -38 84 0 c46 0 84 2 84 5 0 2 -16 35 -36 72 -38 72 -32
68 29 -21 l38 -56 70 0 c39 0 68 3 66 8 -2 4 -32 53 -66 110 -33 57 -73 126
-87 155 -15 29 -32 55 -38 59 -6 4 -7 11 -2 15 5 4 10 3 13 -2 2 -6 45 -85 97
-175 l94 -165 193 -3 c167 -2 191 -1 175 11 -17 12 -12 13 35 4 129 -23 265
64 343 218 34 68 59 195 54 276 -3 57 -8 72 -42 120 -37 51 -26 52 20 2 12
-12 23 -20 26 -17 12 11 38 -68 39 -118 l1 -53 13 55 c7 30 14 53 15 50 19
-53 -3 -137 -70 -273 -49 -98 -89 -156 -164 -235 l-40 -42 90 0 c100 0 106 3
153 83 30 50 18 48 -15 -3 -15 -22 -29 -38 -32 -35 -3 2 0 10 6 17 40 50 117
208 138 287 21 74 42 346 31 380 -1 3 3 8 8 10 6 2 21 -17 33 -42 19 -36 24
-59 22 -114 -3 -123 -5 -141 -14 -136 -4 3 -5 -5 -1 -17 5 -16 4 -20 -5 -15
-9 5 -10 2 -5 -14 4 -12 2 -21 -4 -21 -6 0 -17 -13 -26 -30 -22 -43 -18 -51 6
-10 15 26 18 29 13 10 -9 -35 -78 -170 -132 -260 -25 -41 -47 -78 -49 -82 -2
-5 29 -8 70 -8 l74 0 33 53 c61 97 85 132 95 139 5 4 6 8 2 8 -4 0 4 12 19 27
14 16 32 43 40 61 8 18 18 31 23 28 11 -7 72 79 63 89 -4 5 -2 5 4 2 7 -4 25
6 40 22 16 15 70 59 119 97 50 37 92 72 93 76 2 4 10 8 17 8 7 0 15 7 19 15 3
8 16 15 28 16 13 0 17 3 11 6 -24 9 -14 25 11 19 14 -3 28 -2 31 4 3 5 1 10
-4 10 -16 0 -13 29 4 46 8 9 15 21 14 27 0 9 -2 8 -6 0 -7 -19 -40 -16 -52 5
-10 16 -10 16 -11 0 0 -21 -11 -23 -28 -6 -7 7 -24 12 -39 13 -20 0 -36 12
-60 43 -36 48 -40 74 -18 112 8 14 17 32 21 40 4 8 12 18 17 21 13 9 -31 99
-52 107 -17 6 -31 16 -63 45 -11 10 -33 23 -49 29 -16 5 -29 14 -29 19 0 16
32 23 40 8 7 -11 10 -11 15 2 6 16 35 22 35 8 0 -5 7 -6 15 -3 8 4 15 1 15 -6
0 -10 3 -10 15 0 10 9 23 9 47 2 18 -6 53 -14 78 -17 25 -4 80 -16 124 -26
287 -72 585 -94 854 -62 l52 6 0 153 0 153 -27 4 -28 4 28 2 c27 1 27 1 27 75
0 74 0 75 -27 79 l-28 4 28 2 28 1 -3 132 c-3 124 -4 133 -24 143 -12 6 -28
16 -35 22 -8 6 -17 12 -21 13 -37 9 -48 14 -48 21 0 5 -7 9 -15 9 -34 0 -137
65 -183 115 -52 56 -162 217 -170 247 -2 10 -8 18 -12 18 -5 0 -11 9 -15 19
-3 11 -17 36 -31 56 -58 86 -237 462 -230 482 3 8 2 12 -3 9 -5 -3 -14 9 -21
27 -6 17 -18 48 -25 67 -7 19 -22 58 -33 86 -11 28 -27 84 -37 125 -10 41 -21
82 -26 91 -5 10 -9 27 -9 38 0 11 -3 20 -8 20 -4 0 -13 14 -21 31 -8 18 -39
57 -69 87 l-56 55 53 -5 c101 -10 146 -72 196 -270 35 -138 100 -334 141 -425
13 -28 24 -55 24 -58 0 -15 169 -345 198 -388 18 -25 32 -49 32 -52 0 -4 28
-48 63 -98 110 -162 253 -283 358 -304 l29 -5 0 330 c0 304 -1 332 -17 342
-17 11 -17 11 0 6 16 -5 17 24 17 505 l0 510 -77 -3 -77 -3 -18 -58 c-37 -121
-33 -279 9 -360 8 -16 11 -37 7 -49 -6 -21 -7 -21 -20 -3 -37 50 19 -90 59
-150 l21 -30 -27 24 c-64 58 -133 203 -143 301 -3 30 -7 68 -9 84 -4 30 8 154
21 214 6 31 6 32 -29 32 l-35 0 -7 -65 c-14 -124 -1 -292 28 -373 37 -106 98
-202 180 -285 49 -49 58 -61 27 -36 -68 54 -159 167 -191 234 -15 33 -28 53
-29 45 0 -24 58 -130 98 -180 21 -24 36 -48 34 -53 -1 -5 2 -6 8 -2 5 3 10 1
10 -5 0 -5 15 -24 33 -40 21 -20 27 -30 16 -30 -23 0 -124 64 -153 97 -36 40
-91 148 -110 215 -17 61 -21 242 -7 313 l9 40 1 -41 c2 -63 22 -207 32 -224 5
-9 6 -1 1 20 -4 19 -7 110 -7 203 l1 167 -55 0 -54 0 6 -152 c6 -144 24 -269
42 -298 9 -15 25 -90 19 -90 -2 0 -11 15 -19 33 -11 24 -13 26 -9 7 10 -47
113 -248 155 -300 22 -28 39 -54 36 -56 -7 -7 -67 69 -112 140 -113 178 -155
338 -155 592 l0 124 -46 0 -46 0 7 -112 c18 -298 74 -483 204 -673 23 -33 41
-66 41 -73 0 -6 3 -11 8 -10 4 1 41 -33 82 -76 41 -43 66 -74 55 -68 -23 13
-159 151 -198 202 -20 27 -26 30 -23 14 6 -28 44 -112 66 -144 18 -27 37 -71
23 -55 -23 26 -63 84 -63 91 0 4 -6 15 -14 23 -25 28 -126 239 -166 346 -22
56 -51 161 -65 231 -34 169 -45 210 -66 261 -16 36 -22 42 -48 41 -17 -1 -31
-1 -31 -2 0 -1 9 -24 19 -52 11 -28 29 -93 41 -145 45 -202 62 -266 96 -356
42 -113 110 -257 158 -337 20 -32 36 -60 36 -63 0 -3 32 -46 70 -97 39 -51 70
-97 70 -101 0 -4 -10 5 -22 21 -25 32 -36 46 -67 84 -17 21 -20 22 -21 7 0
-11 9 -26 21 -35 11 -10 22 -26 23 -37 2 -11 9 -19 15 -17 6 1 11 -2 11 -8 0
-5 14 -22 30 -37 17 -15 29 -32 26 -38 -2 -7 0 -18 6 -26 8 -11 9 -10 4 4 -5
17 -4 17 17 0 29 -21 61 -63 54 -70 -8 -8 -85 48 -152 111 -66 61 -88 72 -56
27 12 -16 21 -34 21 -40 0 -6 5 -11 10 -11 6 0 10 -5 10 -12 0 -6 25 -44 55
-85 81 -106 84 -122 16 -81 -72 45 -157 147 -248 299 -61 101 -143 264 -143
284 0 7 -4 15 -8 17 -17 6 -112 277 -147 415 -34 137 -74 242 -103 272 -26 26
-44 60 -38 70 4 6 22 13 41 17 90 16 13 24 -248 24 l-282 0 -37 -25 c-26 -17
-39 -21 -44 -13 -4 6 -3 8 3 5 6 -4 19 3 28 14 19 19 18 20 -38 18 -31 -1 -54
-5 -52 -9 6 -10 -54 -52 -65 -45 -6 4 -9 2 -8 -2 2 -5 -10 -22 -27 -37 -16
-15 -23 -24 -15 -20 13 7 13 5 1 -9 -7 -9 -20 -17 -27 -17 -8 0 -14 -3 -14 -7
0 -11 -90 -105 -123 -128 -15 -11 -25 -26 -22 -32 2 -7 -1 -12 -8 -10 -7 1
-11 -6 -11 -15 1 -10 -4 -18 -12 -18 -8 0 -14 -4 -14 -8 0 -5 -10 -20 -21 -33
-47 -53 -73 -92 -74 -110 -2 -22 -25 -51 -25 -32 0 7 5 15 10 18 6 3 10 11 10
18 0 16 -87 -72 -93 -94 -3 -13 0 -16 12 -12 11 4 10 1 -4 -10 -25 -21 -39
-21 -31 -2 10 26 -10 16 -22 -11 -7 -14 -17 -22 -22 -19 -6 3 -10 -2 -10 -11
0 -16 1 -16 18 -1 10 10 23 17 28 17 5 0 -4 -11 -19 -25 -22 -21 -30 -24 -45
-15 -16 11 -16 11 1 6 11 -3 15 -2 12 4 -9 14 -18 13 -41 -6 -10 -8 -14 -13
-9 -11 6 3 15 -1 22 -8 10 -10 9 -14 -3 -19 -24 -9 -31 -7 -14 4 12 8 12 10
-5 10 -11 0 -38 -16 -59 -35 -21 -19 -43 -32 -49 -28 -5 3 -7 0 -5 -8 6 -15
-21 -69 -34 -69 -5 0 -18 -11 -30 -25 -12 -14 -26 -25 -32 -25 -6 0 5 14 23
31 18 16 31 32 28 36 -3 3 -20 -9 -37 -27 -22 -22 -29 -38 -26 -53 3 -12 3
-16 0 -9 -10 21 -26 13 -19 -9 6 -18 4 -20 -13 -15 -16 6 -24 -2 -42 -39 -19
-39 -22 -58 -17 -113 6 -80 46 -186 58 -154 4 11 2 42 -5 68 -13 47 -14 48
-19 19 -3 -16 -3 20 0 80 3 61 7 113 10 118 7 12 23 8 23 -7 0 -7 7 -19 16
-27 14 -12 14 -14 -5 -21 -17 -6 -21 -16 -21 -48 0 -23 4 -39 8 -36 5 3 16 -4
26 -16 15 -17 16 -24 6 -49 -9 -20 -9 -33 -2 -42 5 -6 10 -24 11 -39 2 -50 4
-57 15 -55 5 1 12 -7 14 -18 2 -11 9 -26 15 -34 6 -7 12 -20 13 -29 2 -8 8
-18 14 -22 7 -4 13 -19 13 -32 2 -20 6 -24 22 -20 18 5 19 4 6 -12 -13 -15
-12 -20 9 -39 12 -12 20 -16 16 -9 -4 6 -2 12 4 12 7 0 10 -7 7 -14 -4 -9 19
-41 61 -84 80 -82 137 -128 217 -176 33 -20 56 -36 50 -36 -16 0 -126 69 -180
113 -186 152 -422 462 -456 600 -11 46 -8 112 7 152 8 19 7 19 -10 3 -21 -22
-32 -23 -40 -3 -7 20 39 65 68 65 13 0 42 17 66 37 23 21 90 70 149 110 187
128 277 206 376 328 136 169 255 296 268 288 5 -3 8 -2 5 3 -3 5 0 15 8 22 8
7 14 11 14 8 0 -2 13 9 30 25 17 18 35 27 41 23 7 -4 9 -3 5 4 -3 6 -2 13 4
17 5 3 10 1 10 -5 0 -6 5 -8 10 -5 22 13 -4 25 -50 24 -32 -2 -47 -6 -43 -13
3 -6 0 -5 -8 2 -7 7 -39 12 -73 12 -52 0 -70 -6 -126 -38z m190 14 c0 -2 -12
-11 -27 -20 l-28 -17 24 20 c23 21 31 25 31 17z m1014 -46 c5 -17 4 -20 -2
-10 -5 8 -13 26 -16 40 -5 17 -4 20 2 10 5 -8 13 -26 16 -40z m163 -12 c-2
-13 -4 -5 -4 17 -1 22 1 32 4 23 2 -10 2 -28 0 -40z m-993 21 c-3 -5 -10 -7
-15 -3 -5 3 -7 10 -3 15 3 5 10 7 15 3 5 -3 7 -10 3 -15z m116 -19 c0 -10 -52
-40 -70 -40 -5 0 -10 5 -10 10 0 6 8 10 18 8 9 -2 16 2 15 8 -1 7 6 10 17 7
11 -3 20 0 20 6 0 6 2 11 5 11 3 0 5 -4 5 -10z m254 -15 c-39 -7 -106 -27
-148 -44 -94 -38 -149 -73 -258 -170 -57 -50 -46 -22 15 37 114 112 279 190
402 190 l60 0 -71 -13z m485 -55 c0 -9 -4 -8 -9 5 -5 11 -9 27 -9 35 0 9 4 8
9 -5 5 -11 9 -27 9 -35z m-869 10 c13 -11 21 -20 19 -21 -2 0 -12 -2 -22 -4
-18 -3 -42 27 -30 39 8 8 7 9 33 -14z m37 14 c-3 -3 -12 -4 -19 -1 -8 3 -5 6
6 6 11 1 17 -2 13 -5z m986 -89 c4 -66 3 -77 -3 -40 -9 52 -13 141 -6 134 2
-2 6 -44 9 -94z m-1528 25 c-3 -5 -12 -10 -18 -10 -7 0 -6 4 3 10 19 12 23 12
15 0z m435 -10 c0 -5 -7 -10 -16 -10 -8 0 -12 5 -9 10 3 6 10 10 16 10 5 0 9
-4 9 -10z m-470 -15 c0 -2 -10 -9 -22 -15 -22 -11 -22 -10 -4 4 21 17 26 19
26 11z m447 -25 c3 -11 10 -17 17 -13 6 3 6 0 -1 -8 -10 -10 -16 -10 -25 -1
-7 7 -8 12 -4 12 5 0 3 7 -4 15 -10 12 -10 15 0 15 6 0 14 -9 17 -20z m-522
-25 c-28 -23 -45 -31 -45 -21 0 5 63 46 70 46 3 0 -8 -11 -25 -25z m481 -12
c-10 -10 -19 5 -10 18 6 11 8 11 12 0 2 -7 1 -15 -2 -18z m-428 -7 c-20 -15
-24 -31 -5 -20 7 4 8 3 4 -2 -5 -5 -16 -9 -25 -9 -9 0 -16 -7 -15 -15 2 -8
-14 -25 -33 -38 -20 -13 -33 -19 -29 -13 8 14 -5 14 -25 1 -11 -7 -11 -10 -2
-10 22 0 3 -19 -38 -39 -29 -14 -42 -16 -51 -7 -9 8 -10 7 -6 -6 6 -18 -6 -23
-46 -20 -10 1 -15 -3 -12 -8 3 -6 0 -10 -8 -10 -8 0 -35 -9 -61 -21 -25 -11
-51 -17 -58 -13 -6 4 -8 3 -5 -2 3 -6 -49 -22 -116 -38 -235 -55 -332 -79
-363 -92 -17 -7 -59 -40 -95 -73 l-64 -61 1 -55 c1 -36 8 -64 20 -81 11 -15
24 -33 29 -41 6 -9 30 -36 53 -60 34 -35 41 -48 30 -54 -7 -5 -17 -9 -23 -9
-5 0 -3 -4 5 -10 8 -5 11 -12 7 -16 -4 -4 -21 2 -37 14 -16 12 -32 22 -35 22
-3 0 -27 10 -53 21 -26 12 -72 32 -102 46 -67 30 -88 48 -106 92 -16 39 -19
111 -4 111 6 0 10 8 10 19 0 27 48 113 80 141 85 75 140 87 483 110 86 6 181
15 210 21 28 6 59 12 67 14 18 3 40 10 103 35 27 10 56 16 64 13 10 -4 14 -2
10 4 -8 13 58 44 80 37 13 -4 15 -3 5 4 -10 7 -6 14 20 29 18 11 58 39 88 62
30 22 57 41 60 41 3 0 -3 -7 -12 -14z m397 -6 c3 -5 1 -10 -4 -10 -6 0 -11 5
-11 10 0 6 2 10 4 10 3 0 8 -4 11 -10z m258 -27 c-4 -22 -2 -34 3 -30 12 7 13
-38 2 -49 -5 -4 -8 -1 -8 7 0 11 -2 11 -10 -1 -5 -8 -10 -19 -10 -25 0 -5 4
-4 9 3 12 19 20 -80 11 -121 -5 -18 -8 -26 -9 -18 -1 8 -3 12 -6 9 -3 -3 1
-18 10 -34 8 -16 15 -53 15 -81 0 -30 5 -53 10 -53 7 0 7 -6 0 -20 -8 -14 -8
-26 0 -40 11 -21 5 -64 -8 -56 -10 6 -5 -132 6 -176 5 -20 7 -39 4 -42 -2 -3
1 -12 8 -21 7 -9 10 -18 6 -22 -10 -11 -17 3 -23 46 -9 67 -22 46 -16 -26 3
-38 5 -83 6 -100 0 -18 4 -33 8 -33 4 0 10 -7 13 -16 5 -12 1 -14 -16 -9 l-21
7 22 -31 22 -31 -22 2 c-15 2 -24 -3 -25 -12 0 -8 1 -9 3 -2 3 6 9 12 15 12 6
0 8 -26 6 -70 -3 -40 0 -74 6 -80 7 -7 7 -10 -1 -10 -7 0 -14 -10 -16 -22 -2
-13 -4 -6 -4 15 0 20 -3 40 -6 44 -4 3 -7 -13 -7 -36 0 -38 -2 -43 -20 -38
-11 3 -20 0 -20 -6 0 -8 -3 -8 -8 -2 -4 6 -25 10 -47 10 -59 0 -217 22 -224
32 -3 4 -19 15 -35 23 -40 21 -83 68 -118 131 -26 47 -30 65 -31 134 -1 90 9
155 23 155 6 0 10 6 10 14 0 7 7 19 15 26 8 7 15 21 15 30 0 10 4 20 8 22 9 3
92 123 92 133 0 4 7 14 16 22 24 25 140 205 148 231 4 12 12 22 17 22 5 0 9 6
9 14 0 7 6 19 13 25 8 6 24 30 36 53 12 24 37 54 56 67 19 13 35 27 35 32 0 5
7 9 15 9 8 0 15 5 15 10 0 6 2 10 4 10 3 0 2 -16 -1 -37z m-359 -20 c-50 -87
-73 -121 -94 -141 -12 -11 -23 -27 -24 -36 -1 -9 -5 -15 -9 -14 -3 2 -17 -10
-29 -26 -13 -16 -36 -43 -52 -59 -15 -16 -29 -36 -30 -43 -1 -7 -22 -34 -47
-61 -24 -26 -64 -72 -88 -101 -24 -28 -47 -50 -49 -47 -3 3 7 19 23 35 16 16
26 32 23 35 -3 3 -18 -11 -34 -32 -15 -21 -31 -40 -35 -43 -3 -3 -10 -16 -14
-29 -5 -18 -9 -20 -16 -10 -11 18 -11 32 0 25 5 -3 8 1 7 8 0 8 36 53 82 100
61 62 87 83 100 79 15 -6 16 -5 2 13 -8 10 -11 16 -6 12 16 -13 204 209 270
320 21 34 40 62 43 62 3 0 -8 -21 -23 -47z m1337 -132 c10 -35 17 -66 15 -68
-7 -7 -46 134 -51 184 l-4 48 10 -50 c5 -27 19 -79 30 -114z m-1221 134 c0 -8
-2 -15 -4 -15 -2 0 -6 7 -10 15 -3 8 -1 15 4 15 6 0 10 -7 10 -15z m277 -7
c-3 -8 -6 -5 -6 6 -1 11 2 17 5 13 3 -3 4 -12 1 -19z m-1737 -48 c0 -5 -5 -10
-11 -10 -5 0 -7 5 -4 10 3 6 8 10 11 10 2 0 4 -4 4 -10z m1760 -25 c0 -5 -5
-3 -10 5 -7 11 -10 -2 -10 -42 0 -59 -13 -77 -24 -35 -10 39 -6 70 12 87 17
17 32 10 32 -15z m-338 -7 c-7 -7 -12 -8 -12 -2 0 14 12 26 19 19 2 -3 -1 -11
-7 -17z m-22 1 c0 -6 -7 -9 -15 -5 -11 4 -15 -2 -15 -22 0 -20 3 -23 10 -12 5
8 13 11 17 6 4 -4 1 -13 -8 -19 -9 -7 -14 -17 -12 -23 2 -6 -9 -16 -24 -23
-19 -8 -28 -19 -29 -37 -1 -14 -10 -34 -19 -44 -11 -12 -15 -27 -10 -42 3 -13
3 -18 -2 -12 -4 6 -21 13 -36 16 -26 5 -27 4 -11 -13 18 -20 11 -61 -10 -53
-9 4 -16 -6 -20 -30 -5 -28 -12 -36 -37 -41 -23 -5 -28 -11 -24 -25 3 -10 1
-21 -5 -25 -5 -3 -10 2 -11 12 0 12 -4 9 -11 -9 -11 -31 -24 -34 -51 -14 -22
17 -7 30 23 21 14 -5 20 -2 20 10 0 9 -4 14 -9 11 -9 -6 -24 35 -15 43 3 3 10
-1 15 -9 8 -12 10 -11 8 5 -3 39 1 47 17 41 11 -4 15 -2 11 8 -6 16 26 50 36
39 4 -3 7 1 7 10 0 9 -6 15 -12 13 -7 -1 -10 -1 -6 1 4 3 10 4 13 3 3 0 13 6
21 15 9 8 26 15 39 15 18 0 23 4 19 15 -4 8 0 23 7 32 11 13 11 15 1 9 -11 -7
-11 -4 0 13 7 12 18 21 25 21 7 0 13 9 13 19 0 11 5 23 10 26 6 4 8 11 5 16
-3 5 1 6 9 3 8 -3 17 -13 20 -22 2 -10 3 2 1 26 -4 39 -2 42 21 42 13 0 24 -5
24 -11z m1655 -97 c-2 -2 20 -26 48 -54 29 -28 43 -46 32 -40 -40 21 -124 112
-118 129 5 13 9 12 24 -8 10 -13 16 -25 14 -27z m-1298 6 c-3 -8 -6 -5 -6 6
-1 11 2 17 5 13 3 -3 4 -12 1 -19z m-10 -40 c-3 -8 -6 -5 -6 6 -1 11 2 17 5
13 3 -3 4 -12 1 -19z m-14 -45 c4 -19 2 -33 -3 -33 -10 0 -14 20 -12 53 1 10
-2 15 -8 12 -6 -4 -7 1 -3 11 8 20 17 5 26 -43z m-648 27 c4 -6 -1 -7 -11 -3
-13 5 -15 3 -9 -7 5 -9 4 -11 -4 -6 -6 4 -9 12 -6 17 8 12 22 12 30 -1z
m-1341 -13 c11 -11 9 -18 -10 -40 -13 -15 -28 -27 -34 -27 -5 0 -10 -11 -10
-25 0 -14 -4 -25 -8 -25 -5 0 -16 -16 -25 -35 -9 -19 -21 -35 -27 -35 -15 0
-12 50 4 56 8 3 17 20 20 38 5 28 59 106 73 106 2 0 10 -6 17 -13z m2003 -9
c-3 -8 -6 -5 -6 6 -1 11 2 17 5 13 3 -3 4 -12 1 -19z m-359 -42 c-10 -7 -15
-16 -12 -19 3 -3 -10 -29 -30 -59 -20 -29 -36 -56 -36 -60 0 -10 -91 -142
-101 -146 -4 -2 -13 -19 -19 -38 -6 -19 -16 -34 -21 -34 -5 0 -9 -6 -9 -13 0
-8 -9 -24 -20 -37 l-20 -23 6 34 c9 48 52 122 149 257 46 65 91 127 100 140
10 13 20 20 23 17 4 -4 -1 -12 -10 -19z m339 -43 c-3 -10 -5 -4 -5 12 0 17 2
24 5 18 2 -7 2 -21 0 -30z m1373 -8 c13 -14 21 -25 18 -25 -2 0 -15 11 -28 25
-13 14 -21 25 -18 25 2 0 15 -11 28 -25z m-1363 -67 c-3 -8 -6 -5 -6 6 -1 11
2 17 5 13 3 -3 4 -12 1 -19z m-867 2 c0 -5 -5 -10 -11 -10 -5 0 -7 5 -4 10 3
6 8 10 11 10 2 0 4 -4 4 -10z m881 -31 c-5 -13 -10 -19 -10 -12 -1 15 10 45
15 40 3 -2 0 -15 -5 -28z m-1551 -7 c60 -30 75 -59 26 -54 -36 5 -98 36 -121
62 -18 19 -17 20 11 20 16 0 54 -13 84 -28z m650 14 c0 -3 -4 -8 -10 -11 -5
-3 -10 -1 -10 4 0 6 5 11 10 11 6 0 10 -2 10 -4z m174 -80 c-3 -9 -10 -16 -15
-16 -5 0 -4 9 3 20 14 22 21 20 12 -4z m701 -7 c-5 -14 -4 -19 4 -15 7 5 8 1
4 -10 -5 -14 -7 -14 -15 -1 -4 8 -5 22 -2 31 9 24 16 19 9 -5z m-688 -36 c-3
-10 -5 -4 -5 12 0 17 2 24 5 18 2 -7 2 -21 0 -30z m-124 2 c-3 -9 -8 -14 -10
-11 -3 3 -2 9 2 15 9 16 15 13 8 -4z m2082 -6 c11 -16 1 -19 -13 -3 -7 8 -8
14 -3 14 5 0 13 -5 16 -11z m-2132 -12 c5 -14 -14 -87 -23 -87 -10 0 -2 -131
11 -183 7 -28 12 -58 10 -66 -1 -7 2 -10 8 -6 6 3 11 0 11 -7 0 -29 94 -165
158 -228 71 -70 128 -108 220 -146 71 -29 53 -32 -22 -3 -171 64 -363 283
-420 481 -22 77 -20 149 5 209 22 50 33 59 42 36z m2172 -27 c10 -11 16 -20
13 -20 -3 0 -13 9 -23 20 -10 11 -16 20 -13 20 3 0 13 -9 23 -20z m85 -55 c0
-10 -16 -4 -40 16 l-25 20 33 -16 c17 -8 32 -18 32 -20z m-2312 -190 c38 -116
106 -220 216 -334 44 -46 67 -75 50 -63 -30 21 -132 123 -194 194 -17 21 -53
73 -80 117 -26 44 -50 78 -53 75 -3 -3 -3 5 0 18 4 19 3 20 -7 8 -10 -13 -11
-12 -6 4 7 22 -32 96 -51 96 -7 0 -13 7 -13 15 0 18 20 20 21 3 0 -10 2 -9 6
0 3 8 22 29 42 47 l36 34 12 -92 c6 -51 16 -105 21 -122z m2125 182 c15 -12
27 -28 27 -35 0 -7 5 -10 10 -7 6 3 10 4 10 1 0 -20 -23 -9 -54 24 -40 43 -35
54 7 17z m-53 -15 c0 -4 23 -35 52 -68 29 -32 42 -50 29 -39 -38 33 -104 115
-92 115 6 0 11 -4 11 -8z m-1151 -122 c0 -15 -28 48 -28 65 0 11 6 2 14 -20 8
-22 15 -42 14 -45z m-1524 30 c24 -19 44 -39 45 -43 0 -13 -41 13 -66 42 -19
21 -23 23 -24 9 0 -10 5 -18 11 -18 6 0 19 -10 28 -21 10 -12 29 -21 44 -21
18 0 37 -11 56 -34 16 -18 32 -30 36 -26 3 3 3 -2 -1 -12 -5 -14 -4 -17 4 -12
8 5 103 -82 255 -232 290 -287 392 -377 485 -430 89 -50 129 -68 141 -64 8 3
11 0 7 -6 -7 -12 165 -10 254 2 69 9 10 -9 -77 -24 -207 -37 -347 51 -813 505
-224 218 -250 243 -258 246 -25 7 -33 13 -28 25 3 8 0 11 -10 7 -10 -4 -12 0
-7 13 5 14 3 16 -11 11 -16 -7 -106 44 -114 65 -2 4 -11 8 -20 9 -11 0 -12 2
-4 6 18 7 15 23 -5 23 -15 0 -16 2 -3 10 19 12 22 12 75 -30z m-115 -55 c46
-13 188 -85 213 -109 14 -13 28 -22 30 -20 2 2 14 -7 27 -21 13 -14 28 -25 33
-25 6 0 26 -16 46 -35 20 -19 90 -85 155 -147 66 -62 140 -133 166 -158 69
-68 127 -119 213 -188 78 -64 103 -92 45 -50 -61 43 -203 165 -276 237 -42 42
-77 69 -84 65 -6 -4 -8 -3 -5 3 6 9 -107 133 -122 133 -3 0 -29 22 -57 48 -28
26 -63 53 -77 61 -14 8 -24 18 -21 23 3 4 -1 8 -8 8 -7 0 -31 15 -53 33 -21
17 -96 60 -165 95 -116 58 -125 65 -60 47z m2925 -5 c10 -11 16 -20 13 -20 -3
0 -13 9 -23 20 -10 11 -16 20 -13 20 3 0 13 -9 23 -20z m-60 -41 c28 -29 39
-44 25 -34 -24 18 -86 85 -78 85 2 0 26 -23 53 -51z m-2305 -14 c0 -5 -5 -3
-10 5 -5 8 -10 20 -10 25 0 6 5 3 10 -5 5 -8 10 -19 10 -25z m2500 -35 c8 -5
11 -10 5 -10 -5 0 -17 5 -25 10 -8 5 -10 10 -5 10 6 0 17 -5 25 -10z m-105
-30 c10 -11 16 -20 13 -20 -3 0 -13 9 -23 20 -10 11 -16 20 -13 20 3 0 13 -9
23 -20z m-1318 -122 c-3 -8 -6 -5 -6 6 -1 11 2 17 5 13 3 -3 4 -12 1 -19z
m-1479 -25 c34 -22 141 -102 166 -125 17 -15 17 -18 4 -18 -9 0 -18 4 -20 8
-4 11 -169 132 -180 132 -4 0 -8 5 -8 10 0 14 7 13 38 -7z m592 -48 c0 -12
-19 -12 -23 0 -4 9 -1 12 9 8 7 -3 14 -7 14 -8z m433 -345 c29 -6 91 -8 155
-4 59 4 157 3 217 -2 l110 -8 -215 -7 c-215 -6 -290 1 -339 32 -14 8 -13 9 4
5 11 -3 42 -10 68 -16z m-952 -193 c24 -22 37 -35 29 -31 -8 4 -12 4 -8 0 3
-4 9 -7 13 -6 11 2 63 -63 91 -115 15 -27 42 -71 60 -98 19 -26 34 -50 34 -53
0 -9 82 -107 97 -117 27 -17 12 -27 -17 -12 -39 20 -130 110 -130 129 0 8 -6
21 -13 28 -8 7 -40 60 -73 117 -69 121 -121 184 -175 211 -20 11 -41 25 -45
32 -12 19 89 -44 137 -85z m67 -10 c46 -49 139 -183 145 -208 2 -13 18 -33 83
-109 57 -65 125 -121 197 -161 28 -16 48 -29 43 -29 -14 0 -140 69 -168 92
-14 13 -36 31 -48 41 -11 10 -18 22 -15 27 4 6 -1 7 -11 3 -13 -5 -16 -3 -11
10 3 9 3 16 -1 14 -15 -4 -66 63 -154 203 -19 30 -56 78 -81 106 -26 29 -47
55 -47 58 0 16 22 1 68 -47z m2709 37 c-3 -3 -12 -4 -19 -1 -8 3 -5 6 6 6 11
1 17 -2 13 -5z m-3337 -18 c0 -2 3 -11 6 -19 4 -11 -1 -13 -20 -10 -31 6 -35
33 -6 33 11 0 20 -2 20 -4z m1180 -21 c7 -8 8 -15 2 -15 -5 0 -15 7 -22 15 -7
8 -8 15 -2 15 5 0 15 -7 22 -15z m72 -55 c43 -38 31 -39 -17 0 -21 17 -33 30
-27 30 7 0 26 -13 44 -30z m-814 -13 c43 -20 125 -110 168 -184 10 -18 22 -33
27 -33 4 0 6 -4 2 -9 -3 -5 5 -20 17 -33 38 -38 93 -120 111 -165 26 -66 0
-56 -91 35 -53 53 -89 100 -116 150 -72 140 -118 199 -196 254 l-25 18 30 -7
c17 -3 49 -15 73 -26z m-77 -34 c65 -35 88 -63 155 -193 30 -57 78 -133 108
-169 73 -91 88 -116 85 -143 -1 -16 17 -43 65 -93 37 -38 69 -82 73 -97 7 -34
19 -36 27 -4 10 41 52 60 147 64 110 5 397 -33 421 -56 4 -4 -48 -7 -115 -7
-135 -1 -166 -4 -184 -18 -9 -6 -13 -6 -13 2 0 19 -17 12 -53 -21 -19 -18 -38
-34 -43 -35 -5 -1 -24 -4 -42 -8 -41 -8 -72 -54 -72 -110 0 -74 68 -283 113
-350 11 -16 48 -58 83 -92 35 -35 61 -63 58 -63 -12 0 -110 99 -146 148 -43
58 -120 211 -112 224 3 4 0 8 -6 8 -7 0 -10 7 -7 15 4 8 2 17 -3 20 -5 3 -23
51 -40 107 -40 128 -67 184 -119 245 -22 27 -41 59 -41 71 0 13 -8 25 -17 28
-26 8 -164 77 -177 89 -15 13 -37 25 -162 90 -188 98 -242 145 -265 227 -8 31
-13 37 -23 29 -17 -14 -26 -4 -26 31 0 21 5 28 20 28 12 0 20 -7 20 -17 1 -13
5 -11 15 8 43 80 171 100 276 42z m2856 -9 c-3 -3 -12 -4 -19 -1 -8 3 -5 6 6
6 11 1 17 -2 13 -5z m66 -11 c-7 -2 -19 -2 -25 0 -7 3 -2 5 12 5 14 0 19 -2
13 -5z m-56 -119 c-3 -3 -12 -4 -19 -1 -8 3 -5 6 6 6 11 1 17 -2 13 -5z m96
-11 c-7 -2 -19 -2 -25 0 -7 3 -2 5 12 5 14 0 19 -2 13 -5z m-3441 -261 c2 -5
24 -23 51 -41 53 -36 59 -45 20 -30 -35 13 -93 57 -93 70 0 11 17 12 22 1z
m1415 -58 c-3 -3 -12 -4 -19 -1 -8 3 -5 6 6 6 11 1 17 -2 13 -5z m40 -10 c-3
-3 -12 -4 -19 -1 -8 3 -5 6 6 6 11 1 17 -2 13 -5z m40 -10 c-3 -3 -12 -4 -19
-1 -8 3 -5 6 6 6 11 1 17 -2 13 -5z m46 -11 c-7 -2 -19 -2 -25 0 -7 3 -2 5 12
5 14 0 19 -2 13 -5z m182 -23 c39 -5 93 -16 120 -24 55 -17 121 -54 111 -63
-3 -3 -16 1 -29 10 -13 8 -73 27 -133 41 -246 56 -245 56 -189 50 28 -2 82 -9
120 -14z m-1342 -56 c18 -9 34 -20 37 -23 3 -3 23 -18 45 -32 61 -40 132 -106
181 -171 24 -32 42 -58 40 -58 -3 0 -31 28 -63 61 -56 59 -164 149 -179 149
-4 0 -21 10 -38 23 -17 12 -44 28 -60 36 -24 10 -27 14 -15 22 18 11 15 12 52
-7z m1682 -114 c8 -16 15 -42 14 -57 l-1 -28 -7 25 c-5 14 -16 40 -25 58 -9
17 -12 32 -7 32 6 0 17 -13 26 -30z m-1579 -21 c25 -17 43 -33 40 -36 -2 -3
-26 11 -52 31 -57 44 -49 47 12 5z m1210 -30 c3 -5 -7 -4 -23 3 -41 17 -53 30
-15 17 18 -6 35 -15 38 -20z m-1035 -141 c29 -37 61 -80 69 -95 8 -15 25 -43
38 -61 13 -17 19 -32 15 -32 -9 0 -53 54 -53 64 0 17 -91 135 -152 199 -21 21
-38 41 -38 44 0 12 71 -58 121 -119z m-225 13 c47 -37 144 -143 144 -156 0 -4
7 -13 15 -21 8 -9 15 -20 15 -25 0 -6 -18 11 -40 38 -23 26 -78 83 -123 125
-87 82 -93 105 -11 39z m694 -1 c9 -6 19 -5 28 2 18 15 61 -17 84 -63 63 -122
107 -233 97 -240 -28 -17 -135 113 -175 213 -11 26 -25 50 -31 53 -20 7 -44
-6 -52 -28 -7 -20 -8 -19 -13 4 -10 54 22 85 62 59z m248 -25 c102 -16 152
-132 72 -165 -49 -20 -92 -6 -123 42 -43 67 -49 146 -10 134 10 -2 37 -8 61
-11z m-534 -200 c27 -49 44 -85 38 -80 -13 13 -132 230 -132 241 0 10 24 -31
94 -161z m1201 13 c-76 -156 -165 -312 -173 -304 -3 3 0 11 5 18 11 14 54 92
133 243 62 119 60 115 66 115 2 0 -12 -33 -31 -72z m-475 37 c0 -36 -28 -44
-52 -16 -22 29 -16 41 23 41 24 0 29 -4 29 -25z m-646 -197 c16 -27 26 -48 23
-48 -6 0 -57 86 -57 96 0 10 3 6 34 -48z m56 -98 c6 -11 8 -20 6 -20 -3 0 -10
9 -16 20 -6 11 -8 20 -6 20 3 0 10 -9 16 -20z m30 -50 c6 -11 8 -20 6 -20 -3
0 -10 9 -16 20 -6 11 -8 20 -6 20 3 0 10 -9 16 -20z"/>
<path d="M1986 3427 c3 -10 9 -15 12 -12 3 3 0 11 -7 18 -10 9 -11 8 -5 -6z"/>
<path d="M1369 3219 c-23 -19 -23 -20 -2 -10 12 6 25 16 28 21 10 16 -1 12
-26 -11z"/>
<path d="M763 3023 c9 -2 23 -2 30 0 6 3 -1 5 -18 5 -16 0 -22 -2 -12 -5z"/>
<path d="M878 3023 c7 -3 16 -2 19 1 4 3 -2 6 -13 5 -11 0 -14 -3 -6 -6z"/>
<path d="M487 2519 c7 -7 15 -10 18 -7 3 3 -2 9 -12 12 -14 6 -15 5 -6 -5z"/>
<path d="M2075 2979 c-4 -6 -5 -12 -2 -15 2 -3 7 2 10 11 7 17 1 20 -8 4z"/>
<path d="M2091 2945 c-1 -11 -4 -31 -6 -45 l-6 -25 11 25 c6 13 9 33 7 45 -4
19 -4 19 -6 0z"/>
<path d="M2086 2815 c-3 -9 -6 -22 -5 -28 0 -7 5 -1 10 12 5 13 8 26 5 28 -2
2 -6 -3 -10 -12z"/>
<path d="M2100 2791 c0 -6 4 -13 10 -16 6 -3 7 1 4 9 -7 18 -14 21 -14 7z"/>
<path d="M2072 2440 c0 -8 4 -26 8 -40 6 -20 8 -21 8 -5 0 11 -3 29 -8 40 -5
12 -8 14 -8 5z"/>
<path d="M1479 2893 c-13 -16 -12 -17 4 -4 9 7 17 15 17 17 0 8 -8 3 -21 -13z"/>
<path d="M1409 2828 c-21 -21 -34 -40 -30 -42 3 -2 21 14 40 35 43 52 37 55
-10 7z"/>
<path d="M2122 3115 c0 -16 2 -22 5 -12 2 9 2 23 0 30 -3 6 -5 -1 -5 -18z"/>
<path d="M115 2970 c-3 -5 -1 -10 4 -10 6 0 11 5 11 10 0 6 -2 10 -4 10 -3 0
-8 -4 -11 -10z"/>
<path d="M650 2390 c0 -5 5 -10 11 -10 5 0 7 5 4 10 -3 6 -8 10 -11 10 -2 0
-4 -4 -4 -10z"/>
<path d="M1022 670 c0 -14 2 -19 5 -12 2 6 2 18 0 25 -3 6 -5 1 -5 -13z"/>
<path d="M2775 3553 c5 -10 16 -40 26 -68 10 -27 18 -43 19 -34 0 28 -32 119
-43 119 -5 0 -6 -8 -2 -17z"/>
<path d="M2929 3549 c12 -35 1 -47 -16 -17 -22 40 -14 6 22 -92 l34 -95 1 113
c0 73 -4 112 -11 112 -6 0 -8 -9 -4 -22 6 -22 6 -22 -15 2 l-20 25 9 -26z"/>
<path d="M3336 3524 c-3 -26 -6 -79 -5 -118 l0 -71 24 100 c13 55 26 108 30
118 6 13 2 17 -18 17 -21 0 -25 -5 -31 -46z"/>
<path d="M120 3415 c-7 -9 -23 -35 -35 -58 -12 -23 -36 -69 -53 -102 -18 -33
-32 -61 -32 -63 0 -15 35 38 66 99 20 41 46 87 57 102 21 30 18 48 -3 22z"/>
<path d="M2841 3344 c0 -11 3 -14 6 -6 3 7 2 16 -1 19 -3 4 -6 -2 -5 -13z"/>
<path d="M2886 3147 c3 -10 9 -15 12 -12 3 3 0 11 -7 18 -10 9 -11 8 -5 -6z"/>
<path d="M3141 3114 c0 -11 3 -14 6 -6 3 7 2 16 -1 19 -3 4 -6 -2 -5 -13z"/>
<path d="M2981 2885 c0 -5 6 -21 14 -35 8 -14 14 -20 14 -15 0 6 -6 21 -14 35
-8 14 -14 21 -14 15z"/>
<path d="M3010 2810 c0 -5 5 -10 11 -10 5 0 7 5 4 10 -3 6 -8 10 -11 10 -2 0
-4 -4 -4 -10z"/>
<path d="M1160 2775 c-7 -8 -8 -15 -2 -15 5 0 15 7 22 15 7 8 8 15 2 15 -5 0
-15 -7 -22 -15z"/>
<path d="M3035 2770 c4 -14 13 -32 20 -40 7 -8 16 -26 20 -40 4 -14 15 -34 25
-45 30 -36 62 -94 55 -105 -3 -6 0 -7 9 -4 20 8 21 6 -14 58 -17 25 -51 80
-76 123 -25 43 -42 67 -39 53z"/>
<path d="M1057 2311 c-4 -15 -1 -18 12 -13 13 5 14 3 3 -10 -10 -12 -10 -18 2
-27 11 -9 13 -6 11 20 -3 39 -20 58 -28 30z"/>
<path d="M1090 2236 c0 -2 8 -10 18 -17 15 -13 16 -12 3 4 -13 16 -21 21 -21
13z"/>
<path d="M1150 2151 c0 -10 19 -25 25 -20 1 2 -3 10 -11 17 -8 7 -14 8 -14 3z"/>
<path d="M3386 1040 c-77 -16 -149 -33 -160 -38 -12 -5 -45 -20 -75 -33 -37
-16 -62 -36 -81 -64 -28 -41 -30 -45 -30 -68 0 -11 -68 -47 -90 -47 -6 0 -19
-9 -29 -19 -22 -22 -18 -66 5 -57 8 3 11 0 8 -8 -3 -8 0 -17 5 -21 6 -3 9 -11
5 -16 -3 -6 3 -13 15 -16 12 -3 21 -11 21 -18 0 -7 12 -21 28 -30 54 -35 218
-201 388 -395 66 -74 131 -148 146 -165 l28 -30 -1 356 c0 349 0 357 -19 352
-12 -3 -20 0 -20 6 0 7 4 10 9 6 5 -3 12 -1 15 4 4 5 -1 8 -10 7 -9 -1 -21
-11 -26 -21 -6 -10 -7 -15 -2 -12 5 3 17 -1 27 -8 17 -12 17 -16 3 -42 -8 -15
-16 -21 -16 -13 0 8 -7 0 -15 -18 -15 -35 -41 -35 -32 -1 3 12 1 17 -5 13 -7
-5 -9 2 -6 20 3 14 2 26 -2 26 -4 0 -5 10 -3 23 4 18 17 28 54 41 l49 18 0
149 c0 175 23 161 -184 119z m-75 -121 c-3 -8 -4 -43 -4 -79 1 -72 -7 -84 -81
-122 -67 -35 -130 -6 -157 71 -11 32 -10 35 22 65 67 62 233 111 220 65z
m-377 -164 c-4 -8 -8 -15 -10 -15 -2 0 -4 7 -4 15 0 8 4 15 10 15 5 0 7 -7 4
-15z m451 -69 c19 -5 75 -85 75 -107 0 -5 9 -35 20 -66 27 -76 25 -91 -5 -54
-14 16 -42 40 -61 52 -36 22 -56 21 -129 -7 -13 -6 -45 62 -45 97 0 37 29 78
63 88 31 9 41 8 82 -3z"/>
<path d="M2870 755 c0 -5 5 -17 10 -25 5 -8 10 -10 10 -5 0 6 -5 17 -10 25 -5
8 -10 11 -10 5z"/>
<path d="M2646 714 c-9 -24 -7 -27 9 -10 17 17 19 26 6 26 -5 0 -12 -7 -15
-16z"/>
<path d="M2632 588 c-60 -11 -62 -15 -12 -20 66 -8 47 -30 -79 -91 -85 -42
-138 -76 -187 -120 -107 -95 -181 -175 -250 -267 l-64 -85 78 -3 77 -3 30 37
c37 47 119 128 171 171 80 67 252 140 306 131 18 -3 12 -7 -22 -16 -140 -39
-249 -106 -378 -234 l-83 -83 47 -3 c42 -3 49 0 88 37 100 99 224 170 322 186
l39 6 -35 -14 c-85 -33 -173 -83 -187 -108 -10 -17 -22 -25 -31 -21 -10 3 -13
1 -8 -6 3 -6 -2 -13 -12 -16 -10 -4 -31 -20 -47 -36 -29 -30 -29 -30 -5 -30
12 0 44 13 69 29 63 38 127 66 189 80 65 16 93 8 32 -9 -59 -16 -200 -80 -200
-91 0 -5 180 -9 401 -9 317 0 399 3 393 12 -6 10 -4 10 8 0 11 -9 53 -12 151
-10 l135 3 -50 55 c-190 208 -290 308 -366 365 -121 90 -235 145 -346 165 -69
12 -101 11 -174 -2z m196 -255 c-16 -2 -40 -2 -55 0 -16 2 -3 4 27 4 30 0 43
-2 28 -4z m-20 -100 c-10 -2 -26 -2 -35 0 -10 3 -2 5 17 5 19 0 27 -2 18 -5z
m452 -210 c0 -2 -18 10 -40 27 -22 17 -40 34 -40 37 0 2 18 -10 40 -27 22 -17
40 -34 40 -37z"/>
<path d="M1 14 c0 -11 3 -14 6 -6 3 7 2 16 -1 19 -3 4 -6 -2 -5 -13z"/>
</g>
</svg>
